<?xml version="1.0" encoding="UTF-8"?> <!-- Generator: Adobe Illustrator 25.0.1, SVG Export Plug-In . SVG Version: 6.00 Build 0) --> <svg xmlns:serif="http://www.serif.com/" xmlns="http://www.w3.org/2000/svg" xmlns:xlink="http://www.w3.org/1999/xlink" version="1.1" id="Layer_1" x="0px" y="0px" viewBox="0 0 600 600" style="enable-background:new 0 0 600 600;" xml:space="preserve"> <style type="text/css"> .st0{fill:#FBB03B;} .st1{fill-rule:evenodd;clip-rule:evenodd;fill:#FBB03B;} </style> <g> <g> <path class="st0" d="M583.1,181.9l-147.6-34.7V0H58.1C26,0,0,26,0,58.1v483.9C0,574,26,600,58.1,600h377.4v-19.4 c-21.3,0-38.7-17.4-38.7-38.7s17.4-38.7,38.7-38.7V375.3l116.1-29V232l31.5-7.4c9.9-2.4,16.9-11.1,16.9-21.3 S593.1,184.3,583.1,181.9z M19.4,58.1c0-18,12.4-33,29-37.3v464c-11.1,1.9-21,6.9-29,14V58.1z M392.2,580.6H58.1 c-21.3,0-38.7-17.4-38.7-38.7s17.4-38.7,38.7-38.7h334.2c-9.2,10.3-14.8,23.9-14.8,38.7C377.4,556.8,383,570.4,392.2,580.6z M416.1,483.9H67.7V19.4h348.4v127.8l-38.7,9.1V58.1h-271v174.2h145.2v19.4H106.5V271h145.2v21.1c-11.2,4-19.4,14.7-19.4,27.3 v67.7h58.1v-67.7c0-12.6-8.1-23.2-19.4-27.3v-67l29,6.8v114.3l116.1,29V483.9z M268.5,181.9c-9.9,2.4-16.9,11.1-16.9,21.3v9.7 H125.8V77.4h232.3v83.4L268.5,181.9z M271,319.4v48.4h-19.4v-48.4c0-5.3,4.3-9.7,9.7-9.7C266.6,309.7,271,314,271,319.4z M532.3,292.5l-21.4,5.4l4.7,18.8l16.8-4.2v18.8l-106.5,26.6l-106.5-26.6v-18.8L425.8,339l70.2-17.6l-4.7-18.8l-65.6,16.4 l-106.5-26.6v-55.9l106.5,25l106.5-25V292.5z M578.7,205.7l-152.9,36l-152.9-36c-1.2-0.3-2-1.3-2-2.5c0-1.2,0.8-2.2,2-2.5 l152.9-36l152.9,36c1.2,0.3,2,1.3,2,2.5C580.6,204.4,579.8,205.4,578.7,205.7z"></path> </g> </g> <g> <g> <rect x="106.5" y="300" class="st1" width="106.5" height="19.4"></rect> </g> </g> <g> <g> <rect x="106.5" y="338.7" class="st1" width="106.5" height="19.4"></rect> </g> </g> <g> <g> <rect x="106.5" y="377.4" class="st1" width="106.5" height="19.4"></rect> </g> </g> <g transform="matrix(1,-0.0049,0.0049,1,-1.7242,0.7295)"> <g> <rect x="106.1" y="416.6" transform="matrix(-1 2.535240e-06 -2.535240e-06 -1 357.352 852.5028)" class="st1" width="145.2" height="19.4"></rect> </g> </g> <g transform="matrix(1,-0.0061,0.0061,1,-2.1437,1.6413)"> <g> <rect x="270.5" y="416.8" transform="matrix(-1 2.535064e-06 -2.535064e-06 -1 647.4802 852.9046)" class="st1" width="106.5" height="19.4"></rect> </g> </g> <g> <g> <rect x="48.4" y="532.3" class="st1" width="271" height="19.4"></rect> </g> </g> <g> <g> <rect x="338.7" y="532.3" class="st1" width="19.4" height="19.4"></rect> </g> </g> </svg> 