<svg xmlns="http://www.w3.org/2000/svg" viewBox="0 0 64 80" x="0px" y="0px"><g><path d="M29.707,32.293A1,1,0,0,0,28.3,33.709a5.246,5.246,0,0,0,7.412,0A1,1,0,0,0,34.291,32.3a3.244,3.244,0,0,1-4.582,0Z"/><path d="M29,29a1,1,0,0,0,1-1V27a1,1,0,0,0-2,0v1A1,1,0,0,0,29,29Z"/><path d="M35,26a1,1,0,0,0-1,1v1a1,1,0,0,0,2,0V27A1,1,0,0,0,35,26Z"/><path d="M56.42,13.09l-24-11a.985.985,0,0,0-.87.02l-24,12a1,1,0,0,0,.27,1.87L18,17.86V20a.968.968,0,0,0,.41.8.991.991,0,0,0,.88.16l.71-.22v5.04A2.986,2.986,0,0,0,19,28v1a3.009,3.009,0,0,0,3,3h1.06A9,9,0,0,0,26,37.69V40H21.86A12.962,12.962,0,0,0,8.92,51.71L8,60.9a1.036,1.036,0,0,0,.26.77A1,1,0,0,0,9,62H55a1,1,0,0,0,.74-.33A1.036,1.036,0,0,0,56,60.9l-.92-9.19A12.962,12.962,0,0,0,42.14,40H38V37.69A9,9,0,0,0,40.94,32H42a3.009,3.009,0,0,0,3-3V28a2.986,2.986,0,0,0-1-2.22V20.74l.71.22A.925.925,0,0,0,45,21a1.015,1.015,0,0,0,1-1V17.86l3-.85V29.18a3,3,0,1,0,2,0V16.45l5.27-1.49a1,1,0,0,0,.15-1.87ZM23,30H22a1,1,0,0,1-1-1V28a1,1,0,0,1,1-1h1Zm3.59,12,3.78,3.78-4.69,2.68L24.25,42ZM28,40.59V39.05a8.9,8.9,0,0,0,8,0v1.54l-4,4Zm11.98,9.63L41.8,42h.34a10.972,10.972,0,0,1,10.95,9.91L53.9,60H10.1l.81-8.09A10.972,10.972,0,0,1,21.86,42h.34l1.82,8.22a.964.964,0,0,0,.58.69A.9.9,0,0,0,25,51a1.009,1.009,0,0,0,.5-.13L32,47.15l6.5,3.72A1.009,1.009,0,0,0,39,51a.9.9,0,0,0,.4-.09A.964.964,0,0,0,39.98,50.22ZM39.75,42l-1.43,6.46-4.69-2.68L37.41,42ZM39,31a7,7,0,0,1-14,0V23a1,1,0,0,1,1-1H38a1,1,0,0,1,1,1ZM38,20H26a3.009,3.009,0,0,0-3,3v2H22V20.12l1.47-.45a28.847,28.847,0,0,1,17.06,0l1.47.45V25H41V23A3.009,3.009,0,0,0,38,20Zm5,9a1,1,0,0,1-1,1H41V27h1a1,1,0,0,1,1,1Zm1-10.35-2.88-.89a30.826,30.826,0,0,0-18.24,0L20,18.65V14.74l3.47-1.07a28.847,28.847,0,0,1,17.06,0L44,14.74Zm2-2.87V14a1.008,1.008,0,0,0-.71-.96l-4.17-1.28a30.826,30.826,0,0,0-18.24,0l-4.17,1.28A1.008,1.008,0,0,0,18,14v1.83l-6.88-1.27L32.02,4.11l17,7.79c0,.04-.02.06-.02.1v2.93ZM50,33a1,1,0,1,1,1-1A1,1,0,0,1,50,33Zm1-18.63V12.81l2.11.97Z"/><path d="M37,55a1,1,0,0,0-2,0v2a1,1,0,0,0,1,1h9a1,1,0,0,0,1-1V55a1,1,0,0,0-2,0v1H37Z"/><path d="M32,50a1,1,0,0,0-1,1v1a1,1,0,0,0,2,0V51A1,1,0,0,0,32,50Z"/><path d="M32,55a1,1,0,0,0-1,1v1a1,1,0,0,0,2,0V56A1,1,0,0,0,32,55Z"/></g><text x="0" y="79" fill="#000000" font-size="5px" font-weight="bold" font-family="'Helvetica Neue', Helvetica, Arial-Unicode, Arial, Sans-serif">Created by sripfoto</text><text x="0" y="84" fill="#000000" font-size="5px" font-weight="bold" font-family="'Helvetica Neue', Helvetica, Arial-Unicode, Arial, Sans-serif">from the Noun Project</text></svg>